<svg xmlns="http://www.w3.org/2000/svg" width="187.5" height="43.5" viewBox="-1.8 -1.8 187.5 43.5"><path fill="#FBC700" d="M18.8.7c-10.5 0-19 8.5-19 19s8.5 19 19 19 19-8.5 19-19-8.5-19-19-19zm0 20.9c-1.1 0-1.9-.9-1.9-1.9 0-1.1.9-1.9 1.9-1.9 1.1 0 1.9.9 1.9 1.9 0 1-.8 1.9-1.9 1.9z"></path><g fill="#231F20"><path d="M49.7 21.5v-9.8h1.9v9.7c0 3.7 1.9 5.7 5.2 5.7 3.1 0 5.1-1.9 5.1-5.6v-9.8h1.9v9.7c0 4.9-2.8 7.5-7.1 7.5-4.2-.1-7-2.6-7-7.4zM68 16.1h1.9v2.5c1-1.5 2.5-2.8 4.8-2.8 3 0 6 2.4 6 6.5s-2.9 6.5-6 6.5c-2.3 0-3.8-1.3-4.8-2.7v6.3H68V16.1zm10.7 6.2c0-3-2-4.8-4.4-4.8-2.3 0-4.5 2-4.5 4.9 0 2.9 2.2 4.8 4.5 4.8 2.4 0 4.4-1.8 4.4-4.9zM84.2 10.9H86v17.7h-1.9V10.9zM89.6 22.3c0-3.5 2.8-6.5 6.5-6.5s6.5 2.9 6.5 6.5c0 3.5-2.8 6.5-6.6 6.5-3.7.1-6.4-2.9-6.4-6.5zm11.1 0c0-2.7-2-4.9-4.6-4.9-2.7 0-4.6 2.2-4.6 4.9s2 4.9 4.6 4.9c2.7 0 4.6-2.2 4.6-4.9zM105.1 24.9c0-2.7 2.2-4.1 5.3-4.1 1.6 0 2.7.2 3.8.5v-.4c0-2.2-1.4-3.4-3.7-3.4-1.5 0-2.6.4-3.8.9l-.6-1.5c1.4-.6 2.7-1.1 4.5-1.1 1.8 0 3.1.5 4 1.4.9.9 1.3 2.1 1.3 3.7v7.6h-1.8v-1.9c-.9 1.1-2.3 2.1-4.5 2.1-2.2.1-4.5-1.2-4.5-3.8zm9.1-.9v-1.2c-.9-.3-2.1-.5-3.7-.5-2.3 0-3.7 1-3.7 2.6s1.5 2.5 3.1 2.5c2.5-.1 4.3-1.4 4.3-3.4zM119.3 22.3c0-4.1 3-6.5 6-6.5 2.3 0 3.8 1.3 4.8 2.7V11h1.9v17.7h-2V26c-1 1.5-2.5 2.8-4.8 2.8-3 0-5.9-2.3-5.9-6.5zm10.8 0c0-2.9-2.2-4.8-4.5-4.8-2.4 0-4.4 1.8-4.4 4.9 0 2.9 2 4.8 4.4 4.8 2.3 0 4.5-2 4.5-4.9zM135.3 22.3c0-3.5 2.8-6.5 6.4-6.5 2.4 0 3.8 1 5 2.2l-1.2 1.3c-1-1-2.2-1.8-3.8-1.8-2.5 0-4.5 2.2-4.5 4.9s2 4.9 4.6 4.9c1.6 0 2.8-.8 3.8-1.9l1.2 1.1c-1.3 1.4-2.8 2.4-5.1 2.4-3.7 0-6.4-3-6.4-6.6zM148.9 24.9c0-2.7 2.2-4.1 5.3-4.1 1.6 0 2.7.2 3.8.5v-.4c0-2.2-1.4-3.4-3.7-3.4-1.5 0-2.6.4-3.8.9l-.6-1.5c1.4-.6 2.7-1.1 4.5-1.1 1.8 0 3.1.5 4 1.4.9.9 1.3 2.1 1.3 3.7v7.6h-1.8v-1.9c-.9 1.1-2.3 2.1-4.5 2.1-2.2.1-4.5-1.2-4.5-3.8zm9.2-.9v-1.2c-.9-.3-2.1-.5-3.7-.5-2.3 0-3.7 1-3.7 2.6s1.5 2.5 3.1 2.5c2.4-.1 4.3-1.4 4.3-3.4zM163.9 16.1h1.9v3.3c.9-2.1 2.7-3.6 5.1-3.5v2h-.1c-2.7 0-5 2-5 5.7v5h-1.9V16.1zM178.6 27.2c1.7 0 2.9-.7 3.9-1.8l1.2 1c-1.3 1.4-2.8 2.3-5.2 2.3-3.4 0-6.2-2.6-6.2-6.5 0-3.6 2.5-6.5 6-6.5 3.7 0 5.8 2.9 5.8 6.6v.7h-9.9c.3 2.7 2.2 4.2 4.4 4.2zm3.7-5.6c-.2-2.3-1.5-4.2-4-4.2-2.2 0-3.8 1.8-4.1 4.2h8.1z"></path></g></svg>